:SAMPLES-PER-SECOND 30
:FULLY-SPECIFIED
:DEGREES
12
root  35.00508887 36.5259546 -14.75540371 9.714205742 -0.6398203969 2.858922482
lowerback  -8.06359005 0.4229729772 1.313019753
upperback  -3.770006657 0.1543689966 -2.634589911
thorax  0.6343770027 -0.1079429984 -3.44885993
lowerneck  -15.21370029 2.583509922 1.892379999
upperneck  16.29100037 2.093189955 3.884239912
head  7.506740093 1.389500022 1.17840004
lclavicle  0 -4.497500157e-015 -2.743230041e-014
lhumerus  -44.13299942 25.3567009 71.11370087
lradius  -0.4475172758 -6.507048965e-006 28.7730999
lwrist  4.824992743e-007 -3.790274832e-007 -28.22130013
lhand  -4.417273986e-031 -36.92810059 -10.69699955
lfingers  90 7.125020027 -90
lthumb  94.83392766 -25.53141127 101.1011154
rclavicle  0 -4.497500157e-015 -2.743230041e-014
rhumerus  -44.4734993 -25.53829956 -68.72290039
rradius  -5.16745672e-007 2.214343908e-008 40.43069839
rwrist  1.129822067e-006 0.001802438172 -146.7899933
rhand  -1.767134617e-031 -2.416990042 -7.878280163
rfingers  -90 -7.125020027 -90
rthumb  -86.61721341 -7.811462199 -66.49557865
rfemur  -12.80870533 15.53634834 13.43872166
rtibia  -0.7359811664 0.4659715891 20.61610603
rfoot  -0.3330194354 -19.53452873 -39.14893341
rtoes  4.115381154 19.589001 -102.1122392
lfemur  -10.30154991 -16.74411583 -18.48335648
ltibia  1.591459751 0.8511559367 16.02426147
lfoot  0.5501344204 -27.66964722 34.42128754
ltoes  -8.711323146 -18.07347582 -116.2844721
13
root  35.00713739 36.52294189 -14.75211617 9.730891228 -0.6208038926 2.847679615
lowerback  -8.065400124 0.4253990352 1.292229652
upperback  -3.770184994 0.1596730053 -2.633810043
thorax  0.6412690282 -0.104693003 -3.435839891
lowerneck  -15.21290016 2.600689888 1.894009948
upperneck  16.19479942 2.128489971 3.867640018
head  7.474629879 1.405869961 1.175430059
lclavicle  0 -4.497500157e-015 -2.743230041e-014
lhumerus  -44.12850189 25.38129997 71.11009979
lradius  -0.4485086203 -6.507048965e-006 28.76740265
lwrist  4.824992743e-007 -3.790274832e-007 -28.29700089
lhand  -4.420116695e-031 -36.97710037 -10.6882
lfingers  90 7.125020027 -90
lthumb  94.85499689 -25.52104711 101.1526354
rclavicle  0 -4.497500157e-015 -2.743230041e-014
rhumerus  -44.34379959 -25.06470108 -68.99469757
rradius  -5.16745672e-007 2.214343908e-008 40.99689865
rwrist  1.129822067e-006 0.001802438172 -147.5149994
rhand  -1.767201528e-031 -2.46784997 -7.832709789
rfingers  -90 -7.125020027 -90
rthumb  -86.60806753 -7.850481319 -66.54259248
rfemur  -12.82139969 15.53561115 13.44260216
rtibia  -0.7262783647 0.4825806022 20.61361885
rfoot  -0.3273904026 -19.51032829 -39.14152527
rtoes  4.089607868 19.59419483 -102.0353759
lfemur  -10.28985596 -16.74868393 -18.47861099
ltibia  1.60189724 0.8689913154 15.99393463
lfoot  0.5435982943 -27.68690491 34.41179276
ltoes  -8.664161074 -18.09554429 -116.132542
14
root  35.0056025 36.52062904 -14.74861536 9.730969429 -0.5848756433 2.849691868
lowerback  -8.084561348 0.4380390942 1.296360731
upperback  -3.771528721 0.1762080044 -2.622430086
thorax  0.6510609984 -0.09620349854 -3.425009966
lowerneck  -15.21399975 2.615410089 1.860890031
upperneck  16.1114006 2.167500019 3.854929924
head  7.44644022 1.422490001 1.179989934
lclavicle  0 -4.497500157e-015 -2.743230041e-014
lhumerus  -44.13949966 25.39579964 71.15869904
lradius  -0.4494667053 -6.507048965e-006 28.80619812
lwrist  4.824992743e-007 -3.790274832e-007 -28.27799988
lhand  -4.417297195e-031 -36.92850113 -10.7020998
lfingers  90 7.125020027 -90
lthumb  94.83520666 -25.53638232 101.1020268
rclavicle  0 -4.497500157e-015 -2.743230041e-014
rhumerus  -44.26860046 -24.63850212 -69.24069977
rradius  -5.16745672e-007 2.214343908e-008 41.59840012
rwrist  1.129822067e-006 0.001802438172 -148.1049957
rhand  -1.767294701e-031 -2.5369699 -7.936399937
rfingers  -90 -7.125020027 -90
rthumb  -86.66210853 -7.751509935 -66.61550028
rfemur  -12.82730484 15.53131962 13.45584774
rtibia  -0.7245950103 0.516733408 20.65125847
rfoot  -0.3400807977 -19.47700119 -39.14598083
rtoes  4.110411721 19.5900051 -102.0974174
lfemur  -10.2195034 -16.76494408 -18.50223351
ltibia  1.651925802 0.889370501 15.89165688
lfoot  0.5444315076 -27.67173004 34.4362793
ltoes  -8.671041421 -18.09233415 -116.1546955
15
root  35.00586983 36.5199472 -14.74484722 9.735713959 -0.5339155197 2.832639217
lowerback  -8.091790199 0.4519919753 1.292899966
upperback  -3.772740364 0.1957519948 -2.627870083
thorax  0.6623809934 -0.08599969745 -3.427069902
lowerneck  -15.22649956 2.652810097 1.852259994
upperneck  16.02109909 2.231990099 3.84175992
head  7.41809988 1.452980042 1.183240056
lclavicle  0 -4.497500157e-015 -2.743230041e-014
lhumerus  -44.12210083 25.36709976 71.19750214
lradius  -0.4504161477 -6.507048965e-006 28.82290077
lwrist  4.824992743e-007 -3.790274832e-007 -28.30260086
lhand  -4.415618017e-031 -36.8995018 -10.71930027
lfingers  90 7.125020027 -90
lthumb  94.82525103 -25.5543446 101.0725427
rclavicle  0 -4.497500157e-015 -2.743230041e-014
rhumerus  -44.1590004 -24.19960022 -69.46980286
rradius  -5.16745672e-007 2.214343908e-008 42.15840149
rwrist  1.129822067e-006 0.001802438172 -148.8079987
rhand  -1.767463151e-031 -2.657360077 -8.024319649
rfingers  -90 -7.125020027 -90
rthumb  -86.71858655 -7.664238679 -66.73734032
rfemur  -12.83097649 15.50784302 13.47015953
rtibia  -0.7140659094 0.5142703056 20.65653992
rfoot  -0.3527764678 -19.51768112 -39.15987778
rtoes  4.091489529 19.59381679 -102.0409869
lfemur  -10.21901989 -16.75239754 -18.47377014
ltibia  1.649477005 0.9462183714 15.88306332
lfoot  0.561275363 -27.78817368 34.44274139
ltoes  -8.70464505 -18.07660984 -116.2629481
16
root  35.005194 36.51950866 -14.74173388 9.741369247 -0.486926496 2.823580503
lowerback  -8.110139847 0.4544100165 1.288480043
upperback  -3.772523642 0.1978230029 -2.640520096
thorax  0.6660029888 -0.08373113722 -3.437609911
lowerneck  -15.24989986 2.678910017 1.855870008
upperneck  15.97049999 2.267560005 3.85800004
head  7.40500021 1.47250998 1.191599965
lclavicle  0 -4.497500157e-015 -2.743230041e-014
lhumerus  -44.09949875 25.33919907 71.21170044
lradius  -0.4513581097 -6.507048965e-006 28.83050156
lwrist  4.824992743e-007 -3.790274832e-007 -28.17869949
lhand  -0 -36.88869858 -10.6729002
lfingers  90 7.125020027 -90
lthumb  94.81034016 -25.50918758 101.0567914
rclavicle  0 -4.497500157e-015 -2.743230041e-014
rhumerus  -44.04869843 -23.56690025 -69.86380005
rradius  -5.16745672e-007 2.214343908e-008 42.87480164
rwrist  1.129822067e-006 0.001802438172 -149.4649963
rhand  -1.76731903e-031 -2.554709911 -8.057049751
rfingers  -90 -7.125020027 -90
rthumb  -86.71352048 -7.639860634 -66.63920388
rfemur  -12.79559135 15.49042034 13.47688675
rtibia  -0.6944338679 0.5242333412 20.61302948
rfoot  -0.3495470285 -19.5075798 -39.19802856
rtoes  4.101608166 19.59178079 -102.0711618
lfemur  -10.15673351 -16.73056793 -18.48714638
ltibia  1.701572776 0.9853290319 15.80409718
lfoot  0.5772146583 -27.82713509 34.43769455
ltoes  -8.757934048 -18.05151712 -116.4348035
17
root  35.00639548 36.51928338 -14.7367958 9.745085716 -0.4317841828 2.810558319
lowerback  -8.097438812 0.435768038 1.230049372
upperback  -3.769750118 0.1768530011 -2.636430025
thorax  0.6550130248 -0.08289416879 -3.40199995
lowerneck  -15.30930042 2.695839882 1.840919971
upperneck  15.93760014 2.2917099 3.88244009
head  7.403749943 1.486809969 1.205299973
lclavicle  0 -4.497500157e-015 -2.743230041e-014
lhumerus  -44.10680008 25.39780045 71.19200134
lradius  -0.4522937536 -6.507048965e-006 28.85809898
lwrist  4.824992743e-007 -3.790274832e-007 -28.13019943
lhand  -4.417030646e-031 -36.9239006 -10.73480034
lfingers  90 7.125020027 -90
lthumb  94.84002006 -25.56875227 101.1000573
rclavicle  0 -4.497500157e-015 -2.743230041e-014
rhumerus  -43.89870071 -22.72900009 -70.32569885
rradius  -5.16745672e-007 2.214343908e-008 43.60290146
rwrist  1.129822067e-006 0.001802438172 -150.5039978
rhand  -1.767118542e-031 -2.404609919 -8.008540154
rfingers  -90 -7.125020027 -90
rthumb  -86.66744298 -7.692654605 -66.49058299
rfemur  -12.75732708 15.44507122 13.48639965
rtibia  -0.6745567918 0.5356200337 20.5615406
rfoot  -0.3286174238 -19.4845047 -39.19655228
rtoes  4.094471924 19.59321724 -102.0498804
lfemur  -10.17411423 -16.69239044 -18.46346474
ltibia  1.693437457 0.9998984933 15.8295145
lfoot  0.5655425191 -27.86616325 34.34791183
ltoes  -8.77677236 -18.04260034 -116.4956118
18
root  35.00860319 36.52085132 -14.73470222 9.784217834 -0.3967262805 2.794999361
lowerback  -8.075181007 0.4412439167 1.220640302
upperback  -3.760890007 0.1860239953 -2.653589964
thorax  0.6524999738 -0.08262550086 -3.413660049
lowerneck  -15.27470016 2.718960047 1.820369959
upperneck  15.76659966 2.331680059 3.932290077
head  7.340229988 1.509260058 1.226469994
lclavicle  0 -4.497500157e-015 -2.743230041e-014
lhumerus  -44.09479904 25.41489983 71.17919922
lradius  -0.4532241523 -6.507048965e-006 28.86680222
lwrist  4.824992743e-007 -3.790274832e-007 -28.12120247
lhand  -4.418607397e-031 -36.9510994 -10.74730015
lfingers  90 7.125020027 -90
lthumb  94.85548972 -25.57997315 101.1303741
rclavicle  0 -4.497500157e-015 -2.743230041e-014
rhumerus  -43.79180145 -21.99950027 -70.6969986
rradius  -5.16745672e-007 2.214343908e-008 44.32429886
rwrist  1.129822067e-006 0.001802438172 -151.6380005
rhand  -1.766929484e-031 -2.253900051 -7.899950027
rfingers  -90 -7.125020027 -90
rthumb  -86.59652358 -7.800549324 -66.33799071
rfemur  -12.77523518 15.42399216 13.48793602
rtibia  -0.6597075462 0.5436661839 20.52282906
rfoot  -0.3121944666 -19.4530735 -39.20874786
rtoes  4.070858289 19.59795174 -101.9794716
lfemur  -10.31049347 -16.73235321 -18.39884377
ltibia  1.622550845 0.9662655592 15.9712038
lfoot  0.5363992453 -27.8502121 34.25255203
ltoes  -8.749847755 -18.05533721 -116.4087106
